<?xml version="1.0" encoding="utf-8"?>
<!-- Generator: Adobe Illustrator 16.0.4, SVG Export Plug-In . SVG Version: 6.00 Build 0)  -->
<!DOCTYPE svg PUBLIC "-//W3C//DTD SVG 1.1//EN" "http://www.w3.org/Graphics/SVG/1.1/DTD/svg11.dtd">
<svg version="1.1" id="Capa_1" xmlns="http://www.w3.org/2000/svg" xmlns:xlink="http://www.w3.org/1999/xlink" x="0px" y="0px"
	 width="24px" height="24px" viewBox="0 0 24 24" enable-background="new 0 0 24 24" xml:space="preserve">
<g>
	<path d="M12,21.25c-5.101,0-9.25-4.149-9.25-9.25S6.899,2.75,12,2.75s9.25,3.701,9.25,8.25c0,2.895-2.355,5.25-5.25,5.25h-1.77
		c-0.689,0-1.25,0.561-1.25,1.25c0,0.301,0.112,0.594,0.316,0.824c0.292,0.328,0.453,0.746,0.453,1.176
		C13.75,20.465,12.965,21.25,12,21.25z M17.5,9.25c-0.689,0-1.25,0.561-1.25,1.25s0.561,1.25,1.25,1.25s1.25-0.561,1.25-1.25
		S18.189,9.25,17.5,9.25z M6.5,9.25c-0.689,0-1.25,0.561-1.25,1.25s0.561,1.25,1.25,1.25s1.25-0.561,1.25-1.25S7.189,9.25,6.5,9.25z
		 M14.5,5.25c-0.689,0-1.25,0.561-1.25,1.25s0.561,1.25,1.25,1.25s1.25-0.561,1.25-1.25S15.189,5.25,14.5,5.25z M9.5,5.25
		c-0.689,0-1.25,0.561-1.25,1.25S8.811,7.75,9.5,7.75s1.25-0.561,1.25-1.25S10.189,5.25,9.5,5.25z"/>
	<path fill="#FFFFFF" d="M12,3c4.971,0,9,3.58,9,8c0,2.76-2.24,5-5,5h-1.77c-0.83,0-1.5,0.67-1.5,1.5c0,0.38,0.149,0.73,0.379,0.99
		c0.24,0.27,0.391,0.619,0.391,1.01c0,0.83-0.67,1.5-1.5,1.5c-4.97,0-9-4.029-9-9C3,7.03,7.03,3,12,3 M14.5,8
		C15.33,8,16,7.33,16,6.5S15.33,5,14.5,5S13,5.67,13,6.5S13.67,8,14.5,8 M9.5,8C10.33,8,11,7.33,11,6.5S10.33,5,9.5,5S8,5.67,8,6.5
		S8.67,8,9.5,8 M17.5,12c0.83,0,1.5-0.67,1.5-1.5S18.33,9,17.5,9S16,9.67,16,10.5S16.67,12,17.5,12 M6.5,12C7.33,12,8,11.33,8,10.5
		S7.33,9,6.5,9S5,9.67,5,10.5S5.67,12,6.5,12 M12,2.5c-5.238,0-9.5,4.262-9.5,9.5s4.262,9.5,9.5,9.5c1.103,0,2-0.897,2-2
		c0-0.491-0.184-0.968-0.518-1.343C13.32,17.974,13.23,17.74,13.23,17.5c0-0.552,0.448-1,1-1H16c3.033,0,5.5-2.467,5.5-5.5
		C21.5,6.313,17.238,2.5,12,2.5L12,2.5z M14.5,7.5c-0.552,0-1-0.449-1-1s0.448-1,1-1s1,0.449,1,1S15.052,7.5,14.5,7.5L14.5,7.5z
		 M9.5,7.5c-0.551,0-1-0.449-1-1s0.449-1,1-1s1,0.449,1,1S10.051,7.5,9.5,7.5L9.5,7.5z M17.5,11.5c-0.552,0-1-0.449-1-1s0.448-1,1-1
		s1,0.449,1,1S18.052,11.5,17.5,11.5L17.5,11.5z M6.5,11.5c-0.551,0-1-0.449-1-1s0.449-1,1-1s1,0.449,1,1S7.051,11.5,6.5,11.5
		L6.5,11.5z"/>
</g>
<path fill="none" d="M0,0h24v24H0V0z"/>
</svg>
